<?xml version="1.0" encoding="UTF-8"?>
<svg width="24px" height="24px" viewBox="0 0 24 24" version="1.1" xmlns="http://www.w3.org/2000/svg" xmlns:xlink="http://www.w3.org/1999/xlink">
    <title>Artboard</title>
    <g id="Artboard" stroke="none" stroke-width="1" fill="none" fill-rule="evenodd">
        <g id="youtube-brands" transform="translate(0.000000, 4.000000)" fill="#FFFFFF" fill-rule="nonzero">
            <path d="M23.4593431,2.63137226 C23.1842628,1.59560584 22.373781,0.779868613 21.3447153,0.503036496 C19.4794599,0 12,0 12,0 C12,0 4.52058394,0 2.65528467,0.503036496 C1.62621898,0.779912409 0.815737226,1.59560584 0.540656934,2.63137226 C0.0408613139,4.50875912 0.0408613139,8.42575182 0.0408613139,8.42575182 C0.0408613139,8.42575182 0.0408613139,12.3427445 0.540656934,14.2201314 C0.815737226,15.2558978 1.62621898,16.0376496 2.65528467,16.3144818 C4.52058394,16.8175182 12,16.8175182 12,16.8175182 C12,16.8175182 19.4794161,16.8175182 21.3447153,16.3144818 C22.373781,16.0376496 23.1842628,15.2558978 23.4593431,14.2201314 C23.9591387,12.3427445 23.9591387,8.42575182 23.9591387,8.42575182 C23.9591387,8.42575182 23.9591387,4.50875912 23.4593431,2.63137226 Z M9.55379562,11.9820876 L9.55379562,4.86941606 L15.8051387,8.42583942 L9.55379562,11.9820876 Z" id="Shape"></path>
        </g>
    </g>
</svg>