<svg width="220" height="68" xmlns="http://www.w3.org/2000/svg"><path d="M93.4 27.65c0 9.23-6.8 14.55-16.75 14.55H68.9v13.5h-9.3V13.03h16.98c10 0 16.8 5.38 16.8 14.62h.02zM76.12 34.3c5.12 0 8.03-1.93 8.03-6.66 0-4.74-2.9-6.72-8.03-6.72h-7.15V34.3h7.15zm50.6 6.2c0 9.12-6.86 15.85-16.52 15.85-9.7 0-16.57-6.78-16.57-15.84 0-9.12 6.86-15.84 16.57-15.84 9.66-.06 16.52 6.72 16.52 15.84v-.01zm-24.6 0c0 5.32 3.43 8.48 8.08 8.48 4.54 0 8.03-3.16 8.03-8.47 0-5.32-3.43-8.48-8.03-8.48-4.6-.06-8.08 3.16-8.08 8.48v-.01zm71.18-15.25l-17.2 42.73h-8.84L152.48 55l-12.5-29.7h9.94l6.17 15.2.29 3.98h.46l7.45-19.17h9.01zm46.23 30.45h-9.3V13.03h9.3zm-36.05-42.67h8.37l16.23 42.73h-9.71l-2.56-7.25h-16.29l-2.5 7.2h-9.77l16.23-42.68zm9.54 27.53l-4.54-13.09-.58-4.62h-.35l-.58 4.62-4.54 13.04h10.59v.05zM137.77 55.7h-8.43V11.22h8.43zM45.36 30.16l7.97-13.44L45.3 1.29 21.58 0l-9.83.12L0 10.7l.4 7.89L7.8 30.8 26 34.78l3.14 3.1 4.3 3.03 8.49 3.4 1.22-1.17-1.98-5.44 1-3.86 3.2-3.68h-.01zm-1.28-1.4l-15.87 3.8 4.12-8.6 17.92-5.6-6.17 10.4zm6.86-12.63l-19.19 6.02-16.28-9.58L22.1 1.93 44.14 3.1l6.8 13.03zM12.44 2l7.45-.06-6.34 10.23L2.21 16.9l-.3-5.43L12.45 2h-.01zM2.69 18.7l11.4-4.79 16.28 9.59-4.48 9.23L8.9 29.05 2.68 18.7h.01zm38.09 23.03l-6.23-2.51-4.07-2.8-2.03-2 13.66-3.27-1.5 1.7-1.29 4.85 1.46 4.03z" fill="#FFF"/></svg>